<svg xmlns="http://www.w3.org/2000/svg" viewBox="0 0 14 30"><defs><style>.cls-1{fill:#3d58a6;}</style></defs><title>Asset 4</title><g id="Layer_2" data-name="Layer 2"><g id="Layer_1-2" data-name="Layer 1"><g id="_020201ff" data-name="#020201ff"><path class="cls-1" d="M4.61,1.55A6.58,6.58,0,0,1,9,0c1.66,0,3.32,0,5,0q0,2.63,0,5.25H10.78A1.48,1.48,0,0,0,9.28,6.4c0,1.17,0,2.34,0,3.52H14c-.12,1.7-.33,3.38-.57,5.06-1.39,0-2.78,0-4.17,0,0,5,0,10,0,15H3c0-5,0-10,0-15-1,0-2,0-3,0,0-1.68,0-3.36,0-5H3c0-1.63,0-3.27,0-4.9A5.28,5.28,0,0,1,4.61,1.55Z"/></g></g></g></svg>