<svg xmlns="http://www.w3.org/2000/svg" viewBox="0 0 100.18 30.57"><defs><style>.cls-1{fill:#ee4036;}</style></defs><title>Asset 1</title><g id="Layer_2" data-name="Layer 2"><g id="Layer_1-2" data-name="Layer 1"><path class="cls-1" d="M7.44,24.77a1.11,1.11,0,0,1-.51-.2L1.12,19a3.35,3.35,0,0,1-.61-.61,2.2,2.2,0,0,1-.36-.51A1.41,1.41,0,0,1,0,17.17v-.82a1.41,1.41,0,0,1,.15-.66c.15-.2.25-.41.36-.51l.61-.61L6.88,8.82a.86.86,0,0,1,.51-.15.65.65,0,0,1,.51.2.91.91,0,0,1,.2.51v1.17c0,.1-.05.15-.05.2a.39.39,0,0,1-.1.2.63.63,0,0,1-.1.15c0,.05-.05.1-.15.2l-.15.15a.61.61,0,0,0-.2.2c-.1.1-.2.15-.2.2L2.65,16.51c-.1.1-.2.2-.2.31a.37.37,0,0,0,.2.31l4.48,4.43a.7.7,0,0,0,.2.15c.1.1.15.15.2.15l.15.15.15.15c.05.05.05.1.1.15s.05.15.1.2.05.15.05.2V24a.65.65,0,0,1-.2.51A.54.54,0,0,1,7.44,24.77Z"/><path class="cls-1" d="M13,30.57c-.1,0-.2-.15-.2-.41V30L17.53.61c.1-.41.2-.61.36-.61h2.75c.15,0,.2.15.2.41V.56L16.15,30c-.1.41-.2.61-.36.61Z"/><path class="cls-1" d="M25.27,27.16a.5.5,0,0,1-.41-.15c-.1-.1-.1-.31-.1-.61V4.23a1.29,1.29,0,0,1,.1-.61.5.5,0,0,1,.41-.15h2.9a.5.5,0,0,1,.41.15c.1.1.1.31.1.61V13a.38.38,0,0,0,.05.25c.05.1.1.1.15.1h6c.05,0,.1-.05.15-.1s.1-.15.1-.25V4.23a.89.89,0,0,1,.15-.61.5.5,0,0,1,.41-.15h3a.4.4,0,0,1,.36.15c.1.1.1.31.1.61V26.4A1.29,1.29,0,0,1,39,27a.46.46,0,0,1-.36.15h-3a.38.38,0,0,1-.25-.05l-.2-.2a1.28,1.28,0,0,1-.1-.51V16.31c0-.25-.05-.36-.2-.36h-6c-.15,0-.2.1-.2.36V26.4a.89.89,0,0,1-.15.61.5.5,0,0,1-.41.15Z"/><path class="cls-1" d="M46.47,27.16a.4.4,0,0,1-.36-.15A.89.89,0,0,1,46,26.4V6.52c0-.25-.05-.41-.2-.41H42q-.08,0-.15-.15a1.13,1.13,0,0,1-.05-.46V4.18a1,1,0,0,1,.1-.56.5.5,0,0,1,.41-.15H53.56a.4.4,0,0,1,.36.15c.1.1.1.31.1.56V5.5a1,1,0,0,1-.1.51.66.66,0,0,1-.41.1H50.09c-.15,0-.2.15-.2.41V26.4a1.05,1.05,0,0,1-.15.66.5.5,0,0,1-.41.15H46.47Z"/><path class="cls-1" d="M56.92,27.16c-.31,0-.46-.25-.46-.82v-.1l.92-21.91c0-.61.2-.92.51-.92H61a.86.86,0,0,1,.51.15.87.87,0,0,1,.31.61l3.36,15.59a.18.18,0,0,0,.05.1h.1c.05,0,.05-.05.05-.1L68.79,4.28c.1-.51.36-.82.76-.82h3.21c.31,0,.46.36.46.92l.92,21.91v.1c0,.51-.15.82-.51.82H71.44c-.31,0-.51-.31-.51-.87l-.61-17c0-.05,0-.1-.05-.1s-.05,0-.1.05L66.55,26.4c-.1.51-.36.82-.66.82H64.61c-.31,0-.56-.25-.66-.82l-3.52-17c0-.05-.05-.1-.1-.05v.1l-.66,16.87c0,.61-.15.87-.46.87H56.92Z"/><path class="cls-1" d="M78.93,27.16a.4.4,0,0,1-.36-.15c-.1-.1-.1-.31-.1-.61V4.23a1.29,1.29,0,0,1,.1-.61.46.46,0,0,1,.36-.15h3a.4.4,0,0,1,.36.15c.1.1.1.31.1.61v20c0,.25.1.36.25.36h5.2a.59.59,0,0,1,.36.1c.1.1.1.25.1.51V26.5a1.36,1.36,0,0,1-.1.56.43.43,0,0,1-.36.1Z"/><path class="cls-1" d="M92.84,24.77a.5.5,0,0,1-.46-.2.91.91,0,0,1-.2-.51V22.93a.31.31,0,0,1,.05-.2c0-.05.05-.1.05-.15a.19.19,0,0,0,.05-.15c0-.05.05-.1.1-.15s.1-.1.1-.15.05-.05.1-.15l.15-.15q.08,0,.15-.15t.15-.15l4.48-4.59a.44.44,0,0,0,.15-.31.37.37,0,0,0-.2-.31L93.1,11.87a1.39,1.39,0,0,0-.25-.2c-.1-.1-.2-.15-.2-.2l-.15-.15c-.1-.1-.15-.15-.15-.2s-.05-.1-.1-.2-.05-.15-.1-.25V9.27a.65.65,0,0,1,.2-.51.65.65,0,0,1,.46-.2.82.82,0,0,1,.51.2l5.81,5.66.61.61a1.78,1.78,0,0,1,.31.46,1.57,1.57,0,0,1,.15.66v1.07c0,.05-.05.15-.05.2a.39.39,0,0,0-.05.2c0,.05-.05.1-.1.2a.63.63,0,0,1-.1.15.88.88,0,0,1-.15.2l-.15.15-.2.2c-.1.1-.2.15-.2.2L93.4,24.51A.87.87,0,0,1,92.84,24.77Z"/></g></g></svg>