<svg xmlns="http://www.w3.org/2000/svg" viewBox="0 0 24.81 30"><defs><style>.cls-1{fill:#3d58a6;}</style></defs><title>Asset 5</title><g id="Layer_2" data-name="Layer 2"><g id="Layer_1-2" data-name="Layer 1"><path class="cls-1" d="M15.81,24.36V20.82q0-1.13-.65-1.13a1.06,1.06,0,0,0-.74.36v5.05a1.06,1.06,0,0,0,.74.36q.65,0,.65-1.11ZM20,21.61h1.49v-.77q0-1.15-.74-1.15T20,20.84Zm-12.88-6v1.58H5.28v9.54H3.61V17.19H1.85V15.61H7.08Zm4.53,2.84v8.28H10.11v-.9a2.4,2.4,0,0,1-1.71,1,.89.89,0,0,1-.95-.63A3.84,3.84,0,0,1,7.31,25V18.45H8.8v6.09a3.41,3.41,0,0,0,0,.59q0,.34.34.34t.95-.7V18.45h1.51ZM17.3,21v3.29a5.88,5.88,0,0,1-.16,1.65,1.16,1.16,0,0,1-1.2.95,2,2,0,0,1-1.53-.92v.81H12.9V15.61h1.51v3.63a2,2,0,0,1,1.53-.9,1.16,1.16,0,0,1,1.2.95A6,6,0,0,1,17.3,21ZM23,23.86v.2a7.53,7.53,0,0,1,0,1,2.12,2.12,0,0,1-.34.9,2,2,0,0,1-1.8.9A2.17,2.17,0,0,1,18.95,26,3.17,3.17,0,0,1,18.47,24V21.14a3.29,3.29,0,0,1,.45-1.94,2.14,2.14,0,0,1,1.8-.86,2,2,0,0,1,1.76.86A3.23,3.23,0,0,1,23,21.14v1.71H20v1.47q0,1.15.77,1.15a.65.65,0,0,0,.68-.59s0-.07,0-.16,0-.21,0-.37v-.48H23ZM12.79,5.28V8.8q0,1.15-.72,1.15T11.35,8.8V5.28q0-1.17.72-1.17T12.79,5.28Zm12,16.08a28.85,28.85,0,0,0-.43-5.86,3.09,3.09,0,0,0-1-1.66,3,3,0,0,0-1.71-.78,92.78,92.78,0,0,0-9.29-.34,92.47,92.47,0,0,0-9.27.34,3,3,0,0,0-1.73.78,3.12,3.12,0,0,0-1,1.66A28.23,28.23,0,0,0,0,21.36a27.64,27.64,0,0,0,.45,5.86,3.17,3.17,0,0,0,1,1.65,3,3,0,0,0,1.7.79Q6.2,30,12.41,30t9.29-.34a3,3,0,0,0,1.7-.79,3.17,3.17,0,0,0,1-1.65A27.64,27.64,0,0,0,24.81,21.36ZM7.78,6.68,9.81,0H8.12L7,4.4,5.77,0H4l.54,1.56.52,1.56a30.94,30.94,0,0,1,1,3.56v4.53H7.78V6.68ZM14.3,8.5V5.57a3.34,3.34,0,0,0-.47-2,2.1,2.1,0,0,0-1.76-.86,2,2,0,0,0-1.76.86,3.34,3.34,0,0,0-.47,2V8.5a3.34,3.34,0,0,0,.47,2,2,2,0,0,0,1.76.86,2.1,2.1,0,0,0,1.76-.86A3.22,3.22,0,0,0,14.3,8.5Zm4.08,2.71h1.51V2.86H18.38V9.25q-.5.7-.95.7t-.36-.36a3.41,3.41,0,0,1,0-.59V2.86H15.54V9.47a4.21,4.21,0,0,0,.14,1.24,1,1,0,0,0,1,.61,2.52,2.52,0,0,0,1.74-1v.9Z"/></g></g></svg>